:SAMPLES-PER-SECOND 30
:FULLY-SPECIFIED
:DEGREES
21
root  80.5321 40.2143 -2.60937 -174.407 -87.5163 172.81
RightUpLeg  0.547573 -8.35845 -5.18171
RightLeg  7.53807 -0.115495 3.53197
RightFoot  -5.14397 0.070966 -1.9653
RightToes  -4.65663e-010 0 -3.6325e-017
Spine  0.854402 1.63077 -0.542787
Spine1  -1.10423 1.40933 1.92994
HEad  12.0547 -1.21846 0.905882
LeftShoulder1  0.756051 -1.47295 -7.51538
LeftArm  -17.673 14.5836 -9.39875
LeftForeArm  19.6418 -2.13995 -0.915292
LeftHand  -0.244104 0.0205437 5.32207
RightShoulder  0.330078 -1.15873 6.37446
RightArm  -20.9745 -10.4768 4.10215
RightForeArm  2.75153 4.83502 2.32508
RightHand  -1.26856 3.87876 -16.0553
LeftUpLeg  1.89198 5.21285 0.674213
LeftLeg  6.57864 16.693 -1.89645
LeftFoot  -7.70463 -1.08514e-005 1.46012
LeftToes  -5.82109e-011 -4.83791e-012 -1.00937e-011
22
root  80.4267 40.2119 -2.4826 -175.372 -87.668 173.768
RightUpLeg  0.790031 -8.32227 -5.29889
RightLeg  7.42982 -0.254859 3.40953
RightFoot  -5.19549 0.0596268 -1.77191
RightToes  -4.65663e-010 0 -3.6325e-017
Spine  0.716936 1.40125 -0.669043
Spine1  -0.893976 1.09868 2.34336
HEad  12.8482 -0.561688 0.736067
LeftShoulder1  0.700715 -1.03752 -8.05481
LeftArm  -17.4781 14.4796 -9.00712
LeftForeArm  19.49 -2.38467 -1.02815
LeftHand  -0.244104 0.0205437 5.32207
RightShoulder  0.331673 -1.00945 5.70921
RightArm  -21.1334 -10.4751 4.54224
RightForeArm  3.22592 4.7666 2.25002
RightHand  -1.23773 3.74666 -15.8938
LeftUpLeg  2.08724 5.12257 0.542355
LeftLeg  6.50433 16.6781 -1.94942
LeftFoot  -7.84045 -0.000549144 1.56114
LeftToes  -5.82109e-011 -4.83791e-012 -1.00937e-011
23
root  80.3244 40.2077 -2.3432 -175.677 -87.8189 174.11
RightUpLeg  0.954817 -8.3683 -5.49399
RightLeg  7.38247 -0.284528 3.33356
RightFoot  -5.30755 0.0448277 -1.52227
RightToes  -4.65663e-010 0 -3.6325e-017
Spine  0.605415 0.725799 -1.62725
Spine1  -0.478251 0.0264513 4.49491
HEad  13.3795 1.32191 -0.334631
LeftShoulder1  0.508235 0.757655 -10.9008
LeftArm  -17.0135 13.9337 -7.35305
LeftForeArm  18.4364 -2.95264 -1.3152
LeftHand  -0.244104 0.0205437 5.32207
RightShoulder  0.332127 -0.418387 2.61378
RightArm  -22.291 -10.0681 7.03531
RightForeArm  4.39078 4.48247 1.93468
RightHand  -1.24035 3.77622 -15.8773
LeftUpLeg  2.23606 4.97438 0.357854
LeftLeg  6.4077 16.7145 -2.02697
LeftFoot  -7.93704 -0.00322177 1.7158
LeftToes  -5.82109e-011 -4.83791e-012 -1.00937e-011
24
root  80.2201 40.1944 -2.18715 -175.026 -87.9328 173.479
RightUpLeg  1.08677 -8.55716 -5.82713
RightLeg  7.44918 -0.0638331 3.34621
RightFoot  -5.48255 0.0210635 -1.13196
RightToes  -4.65663e-010 0 -3.6325e-017
Spine  0.131749 0.784649 -1.32472
Spine1  0.130973 0.188687 3.80947
HEad  14.0965 1.07095 0.111615
LeftShoulder1  0.5317 0.5007 -10.1868
LeftArm  -17.2345 13.7065 -7.92079
LeftForeArm  18.0441 -2.91019 -1.29993
LeftHand  -0.244104 0.0205437 5.32207
RightShoulder  0.325319 -0.655117 3.39131
RightArm  -22.2614 -10.0265 6.54457
RightForeArm  4.27588 4.47017 1.93097
RightHand  -1.25325 3.85399 -15.9084
LeftUpLeg  2.36058 4.84962 0.0943399
LeftLeg  6.40469 16.7685 -2.06844
LeftFoot  -8.07709 -0.0088002 2.01531
LeftToes  -5.82109e-011 -4.83791e-012 -1.00937e-011
25
root  80.1032 40.1765 -2.01733 -174.364 -88.0061 172.737
RightUpLeg  1.31336 -8.76041 -6.18359
RightLeg  7.58117 0.161178 3.32057
RightFoot  -5.65431 0.000251659 -0.787354
RightToes  -4.65663e-010 0 -3.6325e-017
Spine  -0.17349 0.88874 -0.953022
Spine1  0.602258 0.432878 2.97306
HEad  14.9984 0.597046 0.484901
LeftShoulder1  0.565872 0.102078 -9.26009
LeftArm  -17.6565 13.6185 -8.5967
LeftForeArm  18.6796 -2.84282 -1.14356
LeftHand  -0.244104 0.0205437 5.32207
RightShoulder  0.320507 -0.876232 4.3857
RightArm  -21.9643 -10.005 5.90468
RightForeArm  3.70203 4.53575 2.0368
RightHand  -1.23844 3.67543 -16.0225
LeftUpLeg  2.62185 4.7514 -0.179184
LeftLeg  6.40381 16.8565 -2.11795
LeftFoot  -8.22745 -0.0133648 2.31209
LeftToes  -5.82109e-011 -4.83791e-012 -1.00937e-011
26
root  79.9782 40.1594 -1.83961 -173.291 -88.1035 171.48
RightUpLeg  1.62846 -8.91312 -6.51644
RightLeg  7.78959 0.23083 3.17981
RightFoot  -5.87398 -0.0132974 -0.556947
RightToes  -4.65663e-010 0 -3.6325e-017
Spine  -0.287623 1.36975 -0.181685
Spine1  0.725749 1.25559 1.13972
HEad  16.0943 -1.11451 1.36395
LeftShoulder1  0.711365 -1.35036 -6.87873
LeftArm  -18.1051 13.7363 -10.1773
LeftForeArm  19.3694 -2.34443 -0.938411
LeftHand  -0.244104 0.0205437 5.32207
RightShoulder  0.30314 -1.43667 6.99329
RightArm  -20.9238 -10.3313 3.88073
RightForeArm  2.6605 4.83449 2.33485
RightHand  -1.20241 3.36582 -16.0956
LeftUpLeg  3.0855 4.60384 -0.444162
LeftLeg  6.24613 16.9897 -2.25322
LeftFoot  -8.30672 -0.0153871 2.467
LeftToes  -5.82109e-011 -4.83791e-012 -1.00937e-011
27
root  79.8643 40.1342 -1.65564 -170.881 -88.2514 168.842
RightUpLeg  1.86772 -9.15786 -6.8955
RightLeg  8.21747 0.417555 2.99024
RightFoot  -6.23173 -0.0360442 -0.136119
RightToes  -4.65663e-010 0 -3.6325e-017
Spine  0.0176789 1.43467 -0.204547
Spine1  0.624872 1.37037 0.858481
HEad  16.9466 -1.92249 1.58058
LeftShoulder1  0.747577 -1.72313 -6.56101
LeftArm  -18.0993 13.6565 -10.4723
LeftForeArm  19.5231 -2.1246 -0.927082
LeftHand  -0.244104 0.0205437 5.32207
RightShoulder  0.285161 -1.61357 7.53529
RightArm  -20.619 -10.3651 3.52282
RightForeArm  2.45988 5.0137 2.44413
RightHand  -1.19273 3.2425 -16.1881
LeftUpLeg  3.5588 4.46023 -0.732483
LeftLeg  6.12485 17.0704 -2.40629
LeftFoot  -8.41193 -0.0156113 2.59031
LeftToes  -5.82109e-011 -4.83791e-012 -1.00937e-011
